<svg width="1126" height="2278" viewBox="0 0 1126 2278" fill="none" xmlns="http://www.w3.org/2000/svg">
<path fill-rule="evenodd" clip-rule="evenodd" d="M574.947 690.953L627.369 704.9L627.447 704.453C661.447 708.453 756.28 764.453 799.447 791.953C835.947 821.786 911.047 889.053 919.447 919.453C947.447 939.953 962.447 952.953 973.947 976.453C985.447 999.953 997.447 1033.95 997.447 1051.45C1001.07 1058.71 1007.37 1071.21 1015.27 1086.92C1052.03 1159.99 1123.71 1302.46 1124.95 1309.45C1126.45 1317.95 1121.95 1327.95 1115.95 1338.45C1109.95 1348.95 1086.45 1375.45 1071.95 1389.95C1057.45 1404.45 1032.45 1423.45 1007.45 1423.45C993.014 1423.45 984.081 1420.12 979.107 1418.26C975.465 1416.91 973.947 1416.34 973.947 1418.45C973.947 1418.79 973.917 1420.58 973.865 1423.62C973.161 1465.22 968.469 1742.29 982.447 1787.95C995.685 1831.2 992.177 1837.06 985.327 1848.49C984.415 1850.01 983.445 1851.63 982.447 1853.45C982.447 1866.42 985.644 1924.31 988.51 1976.19C990.838 2018.33 992.947 2056.51 992.947 2063.45V2242.45V2276.95H816.947L705.947 2046.95C751.78 2021.79 843.447 1967.95 843.447 1953.95C843.447 1936.45 834.447 1670.45 816.947 1590.45C811.062 1563.55 805.12 1533.76 799.483 1505.5C788.358 1449.73 778.42 1399.91 772.447 1389.95C767.474 1381.67 781.579 1304.85 795.2 1230.68C798.318 1213.7 801.411 1196.85 804.244 1181C791.848 1121.79 761.016 991.605 750.947 969.453C744.03 954.235 709.705 901.504 678.899 854.557C666.608 840.936 652.686 825.482 650.947 823.453C650.176 822.553 646.232 817.754 640.739 811.069L640.737 811.067L640.736 811.066C624.861 791.747 596.047 756.681 593.447 754.453C590.682 752.083 585.42 741.912 581.607 734.54C580.593 732.58 579.682 730.818 578.947 729.453C576.147 724.253 575.113 701.619 574.947 690.953Z" fill="black"/>
<path d="M627.369 704.9L627.241 705.383L627.768 705.524L627.862 704.985L627.369 704.9ZM574.947 690.953L575.075 690.47L574.437 690.3L574.447 690.961L574.947 690.953ZM627.447 704.453L627.505 703.956L627.035 703.901L626.954 704.367L627.447 704.453ZM799.447 791.953L799.763 791.566L799.74 791.547L799.715 791.531L799.447 791.953ZM919.447 919.453L918.965 919.586L919.011 919.754L919.151 919.856L919.447 919.453ZM997.447 1051.45H996.947V1051.57L997 1051.68L997.447 1051.45ZM1015.27 1086.92L1014.82 1087.15L1014.82 1087.15L1015.27 1086.92ZM1124.95 1309.45L1125.44 1309.37L1125.44 1309.37L1124.95 1309.45ZM979.107 1418.26L978.932 1418.73L978.932 1418.73L979.107 1418.26ZM973.865 1423.62L973.365 1423.61L973.365 1423.61L973.865 1423.62ZM982.447 1787.95L981.969 1788.1L981.969 1788.1L982.447 1787.95ZM985.327 1848.49L985.756 1848.75L985.756 1848.75L985.327 1848.49ZM982.447 1853.45L982.008 1853.21L981.947 1853.32V1853.45H982.447ZM988.51 1976.19L988.011 1976.22L988.011 1976.22L988.51 1976.19ZM992.947 2276.95V2277.45H993.447V2276.95H992.947ZM816.947 2276.95L816.496 2277.17L816.633 2277.45H816.947V2276.95ZM705.947 2046.95L705.706 2046.51L705.29 2046.74L705.496 2047.17L705.947 2046.95ZM816.947 1590.45L816.458 1590.56L816.458 1590.56L816.947 1590.45ZM799.483 1505.5L798.993 1505.6L799.483 1505.5ZM772.447 1389.95L772.876 1389.7L772.876 1389.7L772.447 1389.95ZM795.2 1230.68L794.708 1230.59L794.708 1230.59L795.2 1230.68ZM804.244 1181L804.736 1181.09L804.753 1180.99L804.734 1180.9L804.244 1181ZM750.947 969.453L751.402 969.246L751.402 969.246L750.947 969.453ZM678.899 854.557L679.317 854.283L679.296 854.25L679.27 854.222L678.899 854.557ZM650.947 823.453L651.326 823.127L651.326 823.127L650.947 823.453ZM640.739 811.069L640.353 811.387L640.353 811.387L640.739 811.069ZM640.737 811.067L641.124 810.75L641.123 810.749L640.737 811.067ZM640.736 811.066L640.35 811.383L640.351 811.384L640.736 811.066ZM593.447 754.453L593.121 754.832L593.121 754.832L593.447 754.453ZM581.607 734.54L581.163 734.769L581.163 734.769L581.607 734.54ZM578.947 729.453L578.507 729.69L578.507 729.69L578.947 729.453ZM627.498 704.417L575.075 690.47L574.818 691.436L627.241 705.383L627.498 704.417ZM626.954 704.367L626.876 704.815L627.862 704.985L627.939 704.538L626.954 704.367ZM799.715 791.531C778.124 777.776 743.614 756.895 710.246 738.95C693.563 729.978 677.159 721.736 662.795 715.487C648.445 709.243 636.084 704.966 627.505 703.956L627.388 704.949C635.809 705.94 648.053 710.163 662.396 716.403C676.724 722.638 693.102 730.865 709.772 739.831C743.113 757.761 777.602 778.629 799.178 792.375L799.715 791.531ZM919.929 919.32C917.8 911.614 911.473 901.642 902.677 890.59C893.868 879.522 882.538 867.316 870.338 855.136C845.935 830.776 818.022 806.49 799.763 791.566L799.13 792.34C817.371 807.249 845.258 831.513 869.631 855.844C881.818 868.01 893.119 880.186 901.895 891.213C910.683 902.256 916.894 912.092 918.965 919.586L919.929 919.32ZM974.396 976.233C962.839 952.617 947.752 939.557 919.742 919.049L919.151 919.856C947.141 940.349 962.054 953.289 973.498 976.673L974.396 976.233ZM997.947 1051.45C997.947 1042.62 994.925 1029.68 990.485 1016.05C986.04 1002.4 980.156 988.004 974.396 976.233L973.498 976.673C979.237 988.402 985.104 1002.75 989.534 1016.36C993.969 1029.98 996.947 1042.79 996.947 1051.45H997.947ZM1015.72 1086.7C1007.81 1070.99 1001.52 1058.48 997.894 1051.23L997 1051.68C1000.63 1058.93 1006.92 1071.44 1014.82 1087.15L1015.72 1086.7ZM1125.44 1309.37C1125.35 1308.86 1124.97 1307.84 1124.38 1306.41C1123.77 1304.96 1122.92 1303.03 1121.84 1300.67C1119.69 1295.96 1116.64 1289.53 1112.91 1281.79C1105.44 1266.3 1095.21 1245.55 1083.88 1222.74C1061.21 1177.12 1034.1 1123.23 1015.72 1086.7L1014.82 1087.15C1033.2 1123.68 1060.31 1177.56 1082.98 1223.19C1094.32 1246 1104.54 1266.74 1112.01 1282.22C1115.74 1289.96 1118.78 1296.38 1120.93 1301.09C1122.01 1303.44 1122.86 1305.36 1123.45 1306.8C1124.06 1308.26 1124.39 1309.17 1124.45 1309.54L1125.44 1309.37ZM1116.38 1338.7C1119.39 1333.44 1122.03 1328.29 1123.73 1323.37C1125.43 1318.45 1126.21 1313.73 1125.44 1309.37L1124.45 1309.54C1125.18 1313.67 1124.46 1318.21 1122.79 1323.04C1121.11 1327.87 1118.51 1332.96 1115.51 1338.2L1116.38 1338.7ZM1072.3 1390.31C1079.56 1383.05 1089.07 1372.79 1097.51 1363.03C1105.95 1353.29 1113.35 1344 1116.38 1338.7L1115.51 1338.2C1112.54 1343.41 1105.2 1352.62 1096.76 1362.38C1088.33 1372.12 1078.83 1382.36 1071.59 1389.6L1072.3 1390.31ZM1007.45 1423.95C1020.07 1423.95 1032.66 1419.16 1043.89 1412.57C1055.12 1405.98 1065.03 1397.58 1072.3 1390.31L1071.59 1389.6C1064.36 1396.83 1054.52 1405.17 1043.38 1411.71C1032.24 1418.25 1019.82 1422.95 1007.45 1422.95V1423.95ZM978.932 1418.73C983.929 1420.6 992.927 1423.95 1007.45 1423.95V1422.95C993.101 1422.95 984.233 1419.64 979.282 1417.8L978.932 1418.73ZM974.447 1418.45C974.447 1417.96 974.54 1417.76 974.614 1417.67C974.668 1417.61 974.787 1417.54 975.133 1417.56C975.483 1417.58 975.963 1417.69 976.611 1417.9C977.252 1418.11 978.018 1418.39 978.932 1418.73L979.282 1417.8C978.375 1417.46 977.586 1417.16 976.918 1416.95C976.257 1416.73 975.675 1416.58 975.19 1416.56C974.701 1416.53 974.213 1416.62 973.868 1417.01C973.543 1417.37 973.447 1417.89 973.447 1418.45H974.447ZM974.365 1423.63C974.416 1420.59 974.447 1418.8 974.447 1418.45H973.447C973.447 1418.79 973.417 1420.56 973.365 1423.61L974.365 1423.63ZM982.925 1787.81C981.193 1782.15 979.741 1772.87 978.533 1760.84C977.327 1748.83 976.367 1734.11 975.609 1717.59C974.095 1684.55 973.393 1644.34 973.15 1604.26C972.664 1524.09 974.013 1444.43 974.365 1423.63L973.365 1423.61C973.013 1444.41 971.664 1524.08 972.15 1604.27C972.393 1644.36 973.095 1684.58 974.61 1717.64C975.368 1734.16 976.329 1748.9 977.539 1760.94C978.747 1772.97 980.206 1782.34 981.969 1788.1L982.925 1787.81ZM985.756 1848.75C989.189 1843.02 991.84 1838.6 991.92 1830.16C991.999 1821.77 989.544 1809.43 982.925 1787.81L981.969 1788.1C988.588 1809.72 990.998 1821.93 990.92 1830.15C990.843 1838.3 988.315 1842.53 984.898 1848.23L985.756 1848.75ZM982.885 1853.69C983.878 1851.88 984.844 1850.27 985.756 1848.75L984.898 1848.23C983.987 1849.76 983.012 1851.38 982.008 1853.21L982.885 1853.69ZM989.009 1976.16C986.143 1924.26 982.947 1866.4 982.947 1853.45H981.947C981.947 1866.44 985.146 1924.35 988.011 1976.22L989.009 1976.16ZM993.447 2063.45C993.447 2056.49 991.336 2018.28 989.009 1976.16L988.011 1976.22C990.339 2018.37 992.447 2056.52 992.447 2063.45H993.447ZM993.447 2242.45V2063.45H992.447V2242.45H993.447ZM993.447 2276.95V2242.45H992.447V2276.95H993.447ZM816.947 2277.45H992.947V2276.45H816.947V2277.45ZM705.496 2047.17L816.496 2277.17L817.397 2276.74L706.397 2046.74L705.496 2047.17ZM842.947 1953.95C842.947 1954.7 842.637 1955.64 841.974 1956.78C841.316 1957.9 840.333 1959.18 839.048 1960.6C836.479 1963.43 832.743 1966.76 828.096 1970.46C818.807 1977.85 805.933 1986.67 791.615 1995.84C762.981 2014.19 728.617 2033.93 705.706 2046.51L706.187 2047.39C729.11 2034.8 763.495 2015.05 792.154 1996.69C806.482 1987.51 819.389 1978.67 828.719 1971.24C833.382 1967.53 837.166 1964.16 839.789 1961.27C841.1 1959.83 842.131 1958.49 842.838 1957.28C843.54 1956.08 843.947 1954.96 843.947 1953.95H842.947ZM816.458 1590.56C825.198 1630.51 831.822 1716.97 836.26 1795.67C840.698 1874.36 842.947 1945.22 842.947 1953.95H843.947C843.947 1945.19 841.696 1874.3 837.258 1795.61C832.822 1716.94 826.196 1630.39 817.435 1590.35L816.458 1590.56ZM798.993 1505.6C804.63 1533.86 810.572 1563.65 816.458 1590.56L817.435 1590.35C811.551 1563.45 805.611 1533.67 799.974 1505.41L798.993 1505.6ZM772.018 1390.21C773.472 1392.63 775.197 1397.55 777.145 1404.5C779.087 1411.43 781.235 1420.32 783.545 1430.66C788.165 1451.32 793.43 1477.71 798.993 1505.6L799.974 1505.41C794.411 1477.52 789.144 1451.12 784.521 1430.44C782.209 1420.1 780.057 1411.18 778.108 1404.23C776.165 1397.3 774.409 1392.25 772.876 1389.7L772.018 1390.21ZM794.708 1230.59C787.898 1267.67 780.965 1305.43 776.357 1334.95C774.053 1349.7 772.328 1362.41 771.491 1371.96C771.072 1376.73 770.874 1380.72 770.938 1383.78C770.97 1385.31 771.068 1386.63 771.24 1387.69C771.409 1388.75 771.658 1389.61 772.018 1390.21L772.876 1389.7C772.614 1389.26 772.39 1388.55 772.227 1387.53C772.065 1386.53 771.97 1385.27 771.938 1383.76C771.875 1380.75 772.07 1376.8 772.487 1372.04C773.321 1362.54 775.042 1349.85 777.345 1335.1C781.951 1305.6 788.881 1267.86 795.691 1230.77L794.708 1230.59ZM803.752 1180.91C800.919 1196.76 797.826 1213.61 794.708 1230.59L795.691 1230.77C798.81 1213.79 801.903 1196.94 804.736 1181.09L803.752 1180.91ZM750.492 969.66C752.989 975.155 756.794 987.405 761.297 1003.66C765.796 1019.9 770.98 1040.09 776.237 1061.45C786.753 1104.16 797.558 1151.51 803.755 1181.1L804.734 1180.9C798.534 1151.29 787.726 1103.93 777.208 1061.21C771.95 1039.85 766.763 1019.64 762.261 1003.39C757.764 987.157 753.939 974.826 751.402 969.246L750.492 969.66ZM678.481 854.831C693.884 878.305 710.165 903.221 723.459 924.171C736.763 945.136 747.051 962.09 750.492 969.66L751.402 969.246C747.926 961.598 737.592 944.577 724.303 923.635C711.004 902.678 694.72 877.756 679.317 854.283L678.481 854.831ZM650.567 823.778C652.312 825.814 666.241 841.276 678.528 854.892L679.27 854.222C666.974 840.596 653.06 825.15 651.326 823.127L650.567 823.778ZM640.353 811.387C645.842 818.067 649.791 822.873 650.567 823.778L651.326 823.127C650.56 822.233 646.622 817.441 641.125 810.752L640.353 811.387ZM640.351 811.384L640.353 811.387L641.126 810.752L641.124 810.75L640.351 811.384ZM640.351 811.384L640.351 811.385L641.123 810.749L641.122 810.748L640.351 811.384ZM593.121 754.832C593.414 755.083 594.122 755.843 595.199 757.064C596.264 758.27 597.662 759.895 599.319 761.846C602.632 765.746 606.972 770.94 611.729 776.67C621.241 788.128 632.412 801.724 640.35 811.383L641.123 810.749C633.185 801.089 622.012 787.492 612.498 776.031C607.741 770.301 603.398 765.103 600.081 761.198C598.423 759.246 597.02 757.615 595.949 756.402C594.891 755.203 594.13 754.38 593.772 754.073L593.121 754.832ZM581.163 734.769C583.069 738.453 585.342 742.848 587.485 746.619C588.557 748.504 589.6 750.24 590.552 751.657C591.495 753.062 592.374 754.192 593.121 754.832L593.772 754.073C593.137 753.528 592.321 752.498 591.382 751.099C590.45 749.712 589.421 748 588.355 746.125C586.223 742.375 583.959 737.998 582.051 734.31L581.163 734.769ZM578.507 729.69C579.239 731.05 580.148 732.808 581.163 734.769L582.051 734.31C581.038 732.351 580.124 730.585 579.387 729.216L578.507 729.69ZM574.447 690.961C574.53 696.302 574.831 704.638 575.461 712.294C575.776 716.121 576.174 719.786 576.671 722.824C577.163 725.839 577.762 728.307 578.507 729.69L579.387 729.216C578.732 727.999 578.151 725.687 577.657 722.663C577.167 719.662 576.772 716.026 576.458 712.212C575.83 704.584 575.53 696.271 575.447 690.945L574.447 690.961Z" fill="black"/>
<path d="M572.947 20.9528C558.547 26.1528 544.28 38.1195 538.947 43.4528C536.836 45.4528 538.067 48.6195 538.947 49.9528H557.947C568.447 49.9528 618.947 64.9528 638.947 74.9528C658.947 84.9528 700.447 114.453 708.447 122.953C716.447 131.453 717.447 135.953 729.947 135.953C742.447 135.953 741.447 128.953 743.947 122.953C746.447 116.953 739.447 107.953 733.947 103.453C728.447 98.9528 733.947 95.9528 729.947 83.4528C725.947 70.9528 713.947 80.9528 708.447 74.9528C702.947 68.9528 689.947 54.9528 681.447 49.9528C672.947 44.9528 645.447 43.4528 633.947 35.9528C622.447 28.4528 622.447 20.9528 613.947 12.9528C605.447 4.9528 590.947 14.4528 572.947 20.9528Z" fill="#060606" fill-opacity="0.85" stroke="black"/>
<path d="M280.447 248.453C303.447 209.786 355.147 131.153 377.947 125.953C406.447 119.453 476.947 135.453 510.947 154.453C544.947 173.453 629.447 213.453 637.947 230.953C646.447 248.453 650.447 288.953 637.947 341.953C627.947 384.353 629.447 419.619 631.447 431.953V484.453" stroke="#F5CEB2"/>
<path d="M424.447 535.453C437.447 544.453 443.447 559.953 442.947 572.453C442.547 582.453 439.113 591.286 437.447 594.453" stroke="black"/>
<path d="M279.947 433.453C282.613 432.286 288.847 431.553 292.447 437.953C296.947 445.953 306.447 455.953 313.447 453.453C320.447 450.953 343.447 450.453 350.447 460.953" stroke="#F5CEB2"/>
<path d="M253.446 250.953C241.046 250.153 222.28 262.286 214.446 268.453C209.946 277.786 200.346 300.153 197.946 314.953C194.946 333.453 204.446 384.953 235.946 394.453C267.446 403.953 293.946 393.453 311.946 376.953C329.946 360.453 339.946 319.953 339.946 314.953C339.946 309.953 335.446 295.453 325.446 280.453C315.446 265.453 285.446 256.953 283.446 255.453C281.446 253.953 268.946 251.953 253.446 250.953Z" fill="black"/>
<path d="M450.447 319.953C427.247 314.353 408.113 328.953 401.447 336.953C394.006 343.953 392.947 349.453 387.447 368.453C381.947 387.453 388.447 405.953 392.947 427.453C397.447 448.953 430.947 472.453 445.947 474.453C460.947 476.453 494.447 467.453 505.447 455.953C514.247 446.753 528.78 414.786 534.947 399.953C535.992 396.699 536.795 391.764 536.55 385.953C536.092 375.095 531.974 361.178 518.947 349.453C493.947 326.953 479.447 326.953 450.447 319.953Z" fill="black"/>
<path d="M339.946 308.953C344.28 306.953 355.747 304.153 366.947 308.953C378.147 313.753 394.613 329.619 401.447 336.953M401.447 336.953C408.113 328.953 427.247 314.353 450.447 319.953C479.447 326.953 493.947 326.953 518.947 349.453C531.974 361.178 536.092 375.095 536.55 385.953M401.447 336.953C394.006 343.953 392.947 349.453 387.447 368.453C381.947 387.453 388.447 405.953 392.947 427.453C397.447 448.953 430.947 472.453 445.947 474.453C460.947 476.453 494.447 467.453 505.447 455.953C514.247 446.753 528.78 414.786 534.947 399.953C535.992 396.699 536.795 391.764 536.55 385.953M536.55 385.953L551.447 390.953L659.447 455.953L676.447 467.453M214.446 268.453C222.28 262.286 241.046 250.153 253.446 250.953C268.946 251.953 281.446 253.953 283.446 255.453C285.446 256.953 315.446 265.453 325.446 280.453C335.446 295.453 339.946 309.953 339.946 314.953C339.946 319.953 329.946 360.453 311.946 376.953C293.946 393.453 267.446 403.953 235.946 394.453C204.446 384.953 194.946 333.453 197.946 314.953C200.346 300.153 209.946 277.786 214.446 268.453Z" stroke="#F5CEB2" stroke-width="2"/>
<path d="M212.947 377.453C207.78 391.286 198.347 426.153 201.947 454.953C206.447 490.953 196.947 520.953 201.947 542.453C206.947 563.953 209.447 611.953 219.947 629.953C230.447 647.953 274.447 696.953 325.947 695.953C377.447 694.953 495.447 680.453 526.447 662.453C551.247 648.053 575.78 621.786 584.947 610.453" stroke="#F5CEB2"/>
<path d="M633.447 493.453C637.614 485.453 650.647 469.653 669.447 470.453C692.947 471.453 707.447 479.453 707.447 501.953C707.447 524.453 685.947 546.953 669.447 564.953C652.947 582.953 628.947 599.453 617.447 604.453C605.947 609.453 591.447 611.453 586.447 607.953C581.447 604.453 577.947 592.453 578.447 588.453" stroke="#F5CEB2"/>
<path d="M292.947 554.453C246.147 544.853 241.78 520.119 245.447 508.953C246.614 504.786 248.847 495.353 248.447 490.953C247.947 485.453 252.947 481.953 256.947 478.453C260.947 474.953 275.947 476.453 282.447 478.453C288.947 480.453 299.447 492.953 306.947 496.453C314.447 494.953 328.447 501.453 332.447 502.453C336.106 503.368 388.724 548.638 397.661 554.047C398.508 554.042 398.947 554.164 398.947 554.453C398.947 554.708 398.494 554.55 397.661 554.047C389.708 554.088 345.821 565.299 292.947 554.453Z" fill="#CF8B7B"/>
<path d="M245.447 508.953C241.78 520.119 246.147 544.853 292.947 554.453C351.447 566.453 398.947 551.453 398.947 554.453C398.947 557.453 336.447 503.453 332.447 502.453C328.447 501.453 314.447 494.953 306.947 496.453C299.447 492.953 288.947 480.453 282.447 478.453C275.947 476.453 260.947 474.953 256.947 478.453C252.947 481.953 247.947 485.453 248.447 490.953C248.847 495.353 246.614 504.786 245.447 508.953Z" stroke="#CF8B7B" stroke-width="3"/>
<path d="M293.947 500.953C278.747 494.153 262.947 494.786 256.947 495.953V502.953C256.947 505.453 257.647 511.053 260.447 513.453C263.947 516.453 283.447 523.953 291.447 527.953C299.447 531.953 335.947 548.953 345.947 551.953C353.947 554.353 367.947 552.953 373.947 551.953C373.114 550.953 369.847 547.353 363.447 540.953C355.447 532.953 312.947 509.453 293.947 500.953Z" fill="#F4EDED" stroke="#F4EDED"/>
<path d="M261.947 676.953L278.947 800.453C284.113 827.953 293.647 890.153 290.447 918.953C287.247 947.753 285.447 959.286 284.947 961.453" stroke="#F5CEB2"/>
<path d="M284.947 961.953C276.113 976.786 255.847 1010.85 245.447 1028.45C235.047 1046.05 216.113 1078.12 207.947 1091.95C194.113 1117.12 165.247 1170.25 160.447 1181.45C154.447 1195.45 131.947 1242.95 136.947 1253.95" stroke="#F5CEB2"/>
<path d="M714.447 456.953C730.947 411.119 762.947 311.253 758.947 278.453" stroke="#DADDB8"/>
<path d="M684.447 447.953C708.447 395.286 755.447 279.953 751.447 239.953" stroke="#DADDB8"/>
<path d="M690.947 371.953C707.78 322.619 740.147 217.853 734.947 193.453" stroke="#DADDB8"/>
<path d="M684.447 266.953C699.947 236.786 729.647 173.953 724.447 163.953" stroke="#DADDB8"/>
<path d="M696.447 140.953C689.113 161.119 671.347 204.253 658.947 215.453" stroke="#DADDB8"/>
<path d="M670.447 112.953C660.28 135.619 636.847 181.453 624.447 183.453" stroke="#DADDB8"/>
<path d="M586.947 151.453C609.28 133.786 653.447 97.4528 651.447 93.4528" stroke="#DADDB8"/>
<path d="M552.447 129.453C576.28 113.62 627.847 83.2528 643.447 88.4528" stroke="#DADDB8"/>
<path d="M498.447 113.953C530.613 99.1195 600.347 71.4528 621.947 79.4528" stroke="#DADDB8"/>
<path d="M436.947 108.953C445.947 97.7861 474.447 74.4528 516.447 70.4528C568.947 65.4528 587.947 70.4528 598.447 70.4528" stroke="#DADDB8"/>
<path d="M779.947 81.9528C799.28 99.4528 835.847 162.453 827.447 274.453C816.947 414.453 810.947 489.453 811.947 519.453C812.947 549.453 786.447 718.453 779.947 754.453C773.447 790.453 790.447 827.453 791.447 953.453C792.247 1054.25 797.78 1074.45 800.447 1071.95" stroke="#DADDB8"/>
<path d="M737.447 95.9528C749.78 96.7862 775.747 102.853 780.947 120.453C786.147 138.053 795.113 164.453 798.947 175.453" stroke="#DADDB8"/>
<path d="M629.447 23.9528C655.613 11.9528 711.547 -8.4472 725.947 5.9528" stroke="#DADDB8"/>
<path d="M705.447 58.9528C728.447 47.2862 778.047 28.8528 792.447 48.4528C806.847 68.0528 821.78 122.619 827.447 147.453" stroke="#DADDB8"/>
<path d="M730.947 82.9528C748.78 80.4528 786.547 83.9528 794.947 117.953C805.447 160.453 819.947 206.453 811.947 298.953C803.947 391.453 788.447 532.453 794.947 561.953C801.447 591.453 764.447 691.953 757.947 739.453C751.447 786.953 741.447 879.453 757.947 922.953C774.447 966.453 794.947 1082.95 794.947 1113.95C794.947 1138.75 794.947 1169.62 794.947 1181.95" stroke="#DADDB8"/>
<path d="M711.447 66.4528C742.28 58.4528 805.747 54.7528 812.947 103.953C821.947 165.453 839.947 185.453 834.947 258.953C830.947 317.753 828.28 416.119 827.447 457.953C826.78 503.453 822.947 604.453 812.947 644.453C800.447 694.453 776.447 794.453 779.947 818.953C783.447 843.453 812.947 944.953 812.947 979.453C812.947 1013.95 797.447 1114.95 797.447 1140.95" stroke="#DADDB8"/>
<path d="M648.947 34.4528C661.613 15.4528 700.847 -15.5472 756.447 12.4528C825.947 47.4528 816.947 53.4528 825.947 75.4528C833.147 93.0528 837.613 108.453 838.947 113.953" stroke="#F0F5B2"/>
<path d="M674.447 41.9528C719.947 43.7862 816.547 61.0528 838.947 115.453C866.947 183.453 840.947 271.953 851.447 346.453C861.947 420.953 850.447 562.453 838.947 614.953C827.447 667.453 792.947 733.953 793.947 760.953C794.947 787.953 819.947 845.953 838.947 862.453" stroke="#F0F5B2"/>
<path d="M530.447 52.4528C498.613 57.6195 427.447 72.4528 397.447 90.4528C359.947 112.953 330.947 147.453 321.447 162.453C313.847 174.453 309.28 192.786 307.947 200.453" stroke="#FFD15A"/>
<path d="M706.447 517.953C726.447 483.286 766.747 401.553 767.947 351.953C769.447 289.953 755.947 214.953 742.447 198.953" stroke="#FBDB68"/>
<path d="M670.447 39.4528C691.613 28.4528 740.047 11.5528 764.447 31.9528C788.847 52.3528 812.28 73.7862 820.947 81.9528" stroke="#DADDB8"/>
<path d="M747.447 110.453C755.447 112.953 772.447 121.653 776.447 136.453C781.447 154.953 789.947 190.953 788.947 204.453C787.947 217.953 788.947 302.953 788.947 310.453C788.947 317.953 770.947 501.453 774.447 510.953C777.947 520.453 768.947 621.453 765.947 649.953C762.947 678.453 696.947 814.453 702.447 839.953C707.947 865.453 707.947 902.453 726.947 942.953C745.947 983.453 782.447 1093.45 787.947 1124.45" stroke="#DADDB8"/>
<path d="M734.447 71.9528C758.28 68.2862 806.747 70.1528 809.947 106.953C813.947 152.953 809.947 201.953 809.947 234.953C809.947 267.953 809.947 349.953 809.947 366.953" stroke="#DADDB8"/>
<path d="M825.947 104.453C845.113 163.619 881.347 293.753 872.947 340.953C862.447 399.953 839.947 476.953 839.947 510.953C839.947 544.953 849.947 689.953 839.947 743.453C829.947 796.953 807.947 866.453 812.947 904.453" stroke="#DADDB8"/>
<path d="M783.947 532.953C780.447 605.619 769.247 765.653 752.447 824.453C731.447 897.953 741.947 951.453 752.447 985.453C760.847 1012.65 776.947 1064.79 783.947 1087.45" stroke="#DADDB8"/>
<path d="M796.947 382.953C771.78 453.786 721.947 608.053 723.947 658.453C726.447 721.453 735.947 790.453 723.947 858.453C714.347 912.853 756.613 1002.45 778.947 1040.45" stroke="#DADDB8"/>
<path d="M722.447 551.453C705.28 589.119 671.547 678.753 673.947 735.953C676.347 793.153 679.613 831.119 680.947 842.953L696.447 912.453" stroke="#DADDB8"/>
<path d="M751.447 444.453C726.613 490.786 675.847 594.153 671.447 636.953C665.947 690.453 658.947 776.453 671.447 834.453C681.447 880.853 694.947 909.786 700.447 918.453" stroke="#DADDB8"/>
<path d="M670.447 572.453C648.114 617.619 607.247 721.153 622.447 773.953C637.647 826.753 673.447 884.953 689.447 907.453" stroke="#FFE896" stroke-width="2"/>
<path d="M762.447 525.453C755.947 611.119 740.747 797.553 731.947 857.953C720.947 933.453 785.947 1090.45 793.947 1114.95" stroke="#FFE896" stroke-width="2"/>
<path d="M738.947 78.9528C757.28 74.4528 796.147 74.2528 804.947 109.453C815.947 153.453 829.947 216.953 826.947 279.953C823.947 342.953 804.947 480.453 804.947 528.453C804.947 576.453 792.447 717.953 775.947 804.453C759.447 890.953 774.947 1046.45 784.447 1076.45" stroke="#FFE896" stroke-width="2"/>
<path d="M698.947 42.9528C722.113 29.1195 774.147 12.5528 796.947 56.9528C825.447 112.453 843.947 185.953 845.947 220.453C847.947 254.953 835.447 400.953 836.447 457.453C837.247 502.653 819.113 600.953 809.947 644.453" stroke="#FFE896" stroke-width="2"/>
<path d="M766.447 425.453C741.28 495.953 691.747 657.253 694.947 738.453C698.147 819.653 715.28 903.953 723.447 935.953" stroke="#FFE896" stroke-width="2"/>
<path d="M411.947 102.953C435.947 88.1195 495.747 58.4528 542.947 58.4528" stroke="#FFE896" stroke-width="2"/>
<path d="M522.947 135.453C542.613 116.953 591.047 80.5528 627.447 82.9528" stroke="#FFE896" stroke-width="2"/>
<path d="M663.947 258.453C682.447 230.786 719.047 171.153 717.447 153.953" stroke="#FFE896" stroke-width="2"/>
<path d="M675.947 353.953C694.28 309.286 731.147 214.053 731.947 190.453" stroke="#FFE896" stroke-width="2"/>
<path d="M762.447 340.453C755.78 372.453 737.647 445.053 718.447 479.453" stroke="#FFE896" stroke-width="2"/>
<path d="M471.447 114.953C487.113 100.786 532.647 72.8528 589.447 74.4528" stroke="#DFA46D"/>
<path d="M602.947 178.453C618.947 161.619 653.047 123.653 661.447 106.453" stroke="#DFA46D"/>
<path d="M559.447 153.453C580.113 134.619 625.747 96.3528 642.947 93.9528" stroke="#DFA46D"/>
<path d="M641.447 209.953C656.78 187.286 687.047 138.653 685.447 125.453" stroke="#DFA46D"/>
<path d="M706.447 151.453C699.78 171.953 681.247 220.253 660.447 249.453" stroke="#DFA46D"/>
<path d="M657.447 350.953C683.113 299.619 734.047 193.953 732.447 181.953" stroke="#DFA46D"/>
<path d="M660.447 437.453C688.947 385.453 745.547 272.953 743.947 238.953" stroke="#DFA46D"/>
<path d="M646.947 415.453C665.947 382.953 705.247 312.253 710.447 289.453" stroke="#DFA46D"/>
<path d="M695.947 463.453C718.447 408.619 762.447 292.853 758.447 268.453" stroke="#DFA46D"/>
<path d="M658.447 36.4528C686.613 20.2862 752.747 -2.34716 791.947 36.4528" stroke="#DFA46D"/>
<path d="M721.447 60.4528C747.947 51.6195 804.747 43.9528 819.947 83.9528C838.947 133.953 855.947 240.453 858.947 299.953C861.947 359.453 838.947 417.453 839.947 455.453C840.947 493.453 847.947 640.953 839.947 689.953C831.947 738.953 801.947 827.453 801.947 867.453" stroke="#DFA46D"/>
<path d="M746.447 104.953C764.613 103.786 801.747 124.153 804.947 214.953C808.947 328.453 791.947 427.453 791.947 445.453C791.947 463.453 802.947 567.953 791.947 634.953C780.947 701.953 754.947 806.453 756.947 860.453C758.947 914.453 791.947 1034.95 798.947 1099.95" stroke="#DFA46D"/>
<path d="M641.447 600.953C621.113 639.453 585.847 725.453 607.447 761.453C634.447 806.453 661.447 837.453 667.447 851.453" stroke="#DFA46D"/>
<path d="M729.447 502.453C700.78 564.453 648.447 706.453 668.447 778.453C693.447 868.453 719.447 924.453 724.447 939.453" stroke="#DFA46D"/>
<path d="M692.447 548.953C666.113 590.453 622.047 699.653 656.447 804.453C690.847 909.253 742.447 1007.12 763.947 1042.95" stroke="#DFA46D"/>
<path d="M752.947 122.953C767.613 148.286 796.247 222.853 793.447 318.453" stroke="#DFA46D"/>
<path d="M595.947 609.953C590.305 618.786 578.457 641.353 576.201 660.953C573.38 685.453 576.201 708.453 576.201 717.953C576.201 725.553 584.851 742.453 589.177 749.953" stroke="#F5CEB2"/>
<path d="M271.447 750.453C265.78 754.453 253.447 765.153 249.447 775.953C244.447 789.453 234.447 811.453 232.447 826.953C230.447 842.453 226.947 871.453 232.447 877.953C237.947 884.453 252.447 886.953 258.947 879.453C265.447 871.953 277.447 814.953 280.447 813.953" stroke="#F5CEB2"/>
<path d="M250.947 770.453C247.947 765.619 240.547 755.853 234.947 755.453C227.947 754.953 223.947 756.953 221.447 758.453C218.947 759.953 212.947 765.453 211.447 776.953C209.947 788.453 202.447 809.453 203.947 819.453C205.447 829.453 207.447 846.453 212.947 851.453C217.347 855.453 225.447 854.786 228.947 853.953" stroke="#F5CEB2"/>
<path d="M202.447 819.453C181.28 857.286 138.047 940.053 134.447 968.453C135.947 1005.45 138.947 1037.45 134.447 1068.45C129.947 1099.45 112.447 1189.45 120.447 1247.45" stroke="#F5CEB2"/>
<path d="M282.947 863.953C257.28 881.953 205.847 921.653 205.447 936.453" stroke="#F5CEB2"/>
<path d="M231.447 872.453C232.447 862.12 236.547 841.953 244.947 843.953C255.447 846.453 258.447 853.453 258.947 862.953C259.347 870.553 259.113 876.12 258.947 877.953" stroke="#F5CEB2"/>
<path d="M231.947 826.953C229.78 821.619 224.247 812.553 219.447 818.953C214.647 825.353 213.78 838.953 213.947 844.953V851.453" stroke="#F5CEB2"/>
<path d="M588.947 749.453C618.447 782.119 679.147 854.053 685.947 880.453C694.447 913.453 748.447 969.953 778.947 1093.45C803.347 1192.25 807.113 1228.62 805.947 1234.45" stroke="#F5CEB2"/>
<path d="M271.447 1059.95C244.647 1117.15 172.613 1213.79 139.947 1254.95C134.747 1244.15 149.447 1202.79 157.447 1183.45C145.447 1201.95 121.447 1240.25 121.447 1245.45C121.447 1251.95 96.4467 1322.45 77.9467 1380.95C59.4467 1439.45 74.9467 1454.95 87.9467 1490.95C100.947 1526.95 116.947 1544.95 127.947 1564.45C125.113 1584.79 117.647 1643.05 110.447 1713.45C171.947 1811.45 552.447 1803.45 550.447 1786.95C548.447 1770.45 477.447 1625.45 472.947 1603.95C469.347 1586.75 424.78 1491.79 402.947 1446.45C368.447 1422.12 292.247 1363.25 263.447 1322.45C227.447 1271.45 250.947 1181.45 250.447 1167.45C250.047 1156.25 264.28 1106.12 271.447 1082.45C280.78 1062.62 300.547 1019.25 304.947 1004.45C310.447 985.953 326.947 955.453 352.947 918.953C378.947 882.453 405.947 874.453 458.947 852.453C511.947 830.453 552.447 846.953 573.947 852.453C595.447 857.953 626.447 881.953 662.947 928.453C699.447 974.953 710.947 1007.45 728.447 1039.45C745.947 1071.45 759.947 1143.45 764.447 1167.45C768.947 1191.45 770.947 1249.95 770.947 1268.45C770.947 1283.25 763.613 1332.95 759.947 1355.95L770.947 1388.95L782.447 1307.45C783.28 1271.62 782.147 1185.65 770.947 1128.45C756.947 1056.95 732.447 1013.95 678.447 928.453C624.447 842.953 568.947 837.453 518.947 830.953C468.947 824.453 397.447 865.453 362.447 895.953C327.447 926.453 304.947 988.453 271.447 1059.95Z" fill="#060606" fill-opacity="0.85" stroke="#F5CEB2"/>
<circle cx="598.447" cy="584.453" r="5.5" fill="#7A7979"/>
<circle cx="616.947" cy="590.953" r="5" fill="#7A7979"/>
<path d="M637.479 585.453C637.479 587.938 635.464 589.953 632.979 589.953C630.494 589.953 628.479 587.938 628.479 585.453C628.479 582.968 630.494 580.953 632.979 580.953C635.464 580.953 637.479 582.968 637.479 585.453Z" fill="#7A7979"/>
<path d="M305.947 1011.45C302.947 1058.95 300.347 1163.85 313.947 1203.45C327.547 1243.05 379.28 1381.62 403.447 1445.95C454.447 1554.45 556.447 1776.85 556.447 1798.45C556.447 1820.05 556.447 1831.45 556.447 1834.45C448.614 1911.79 212.247 2069.55 129.447 2081.95C85.4469 2017.45 68.4469 1998.95 51.4469 1995.45C34.4469 1991.95 16.9469 1995.45 18.9469 2012.45C20.9469 2029.45 35.947 2042.95 34.447 2051.45C32.947 2059.95 -40.053 2170.45 34.447 2234.95C94.047 2286.55 173.614 2272.12 205.947 2258.45C317.613 2221.12 557.947 2136.95 625.947 2098.95C710.947 2051.45 832.947 1969.95 841.447 1952.95C839.947 1923.95 843.447 1699.45 817.947 1595.95C792.447 1492.45 727.947 1182.95 703.947 1165.95" stroke="#F5CEB2"/>
<path d="M118.447 1724.45C113.947 1797.95 108.847 1951.55 124.447 1977.95" stroke="#F5CEB2"/>
</svg>
