<svg width="1162" height="1985" viewBox="0 0 1162 1985" fill="none" xmlns="http://www.w3.org/2000/svg">
<mask id="mask0_16_534" style="mask-type:alpha" maskUnits="userSpaceOnUse" x="0" y="0" width="1162" height="1985">
<path d="M0 0H1162V1985H0V0Z" fill="#C4C4C4"/>
</mask>
<g mask="url(#mask0_16_534)">
<path fill-rule="evenodd" clip-rule="evenodd" d="M579.947 783.953L632.369 797.9L632.447 797.453C666.447 801.453 761.28 857.453 804.447 884.953C840.947 914.786 916.047 982.053 924.447 1012.45C952.447 1032.95 967.447 1045.95 978.947 1069.45C990.447 1092.95 1002.45 1126.95 1002.45 1144.45C1006.07 1151.71 1012.37 1164.21 1020.27 1179.92C1057.03 1252.99 1128.71 1395.46 1129.95 1402.45C1131.45 1410.95 1126.95 1420.95 1120.95 1431.45C1114.95 1441.95 1091.45 1468.45 1076.95 1482.95C1062.45 1497.45 1037.45 1516.45 1012.45 1516.45C998.014 1516.45 989.081 1513.12 984.107 1511.26C980.465 1509.91 978.947 1509.34 978.947 1511.45C978.947 1511.79 978.917 1513.58 978.865 1516.62C978.161 1558.22 973.469 1835.29 987.447 1880.95C1000.69 1924.2 997.177 1930.06 990.327 1941.49C989.415 1943.01 988.445 1944.63 987.447 1946.45C987.447 1959.42 990.644 2017.31 993.51 2069.19C995.838 2111.33 997.947 2149.51 997.947 2156.45V2335.45V2369.95H821.947L710.947 2139.95C756.78 2114.79 848.447 2060.95 848.447 2046.95C848.447 2029.45 839.447 1763.45 821.947 1683.45C816.062 1656.55 810.12 1626.76 804.483 1598.5C793.358 1542.73 783.42 1492.91 777.447 1482.95C772.474 1474.67 786.579 1397.85 800.2 1323.68C803.318 1306.7 806.411 1289.85 809.244 1274C796.848 1214.79 766.016 1084.6 755.947 1062.45C749.03 1047.23 714.705 994.504 683.899 947.557C671.608 933.936 657.686 918.482 655.947 916.453C655.176 915.553 651.232 910.754 645.739 904.069L645.737 904.067L645.736 904.066C629.861 884.747 601.047 849.681 598.447 847.453C595.682 845.083 590.42 834.912 586.607 827.54C585.593 825.58 584.682 823.818 583.947 822.453C581.147 817.253 580.113 794.619 579.947 783.953Z" fill="black"/>
<path d="M632.369 797.9L632.241 798.383L632.768 798.524L632.862 797.985L632.369 797.9ZM579.947 783.953L580.075 783.47L579.437 783.3L579.447 783.961L579.947 783.953ZM632.447 797.453L632.505 796.956L632.035 796.901L631.954 797.367L632.447 797.453ZM804.447 884.953L804.763 884.566L804.74 884.547L804.715 884.531L804.447 884.953ZM924.447 1012.45L923.965 1012.59L924.011 1012.75L924.151 1012.86L924.447 1012.45ZM1002.45 1144.45H1001.95V1144.57L1002 1144.68L1002.45 1144.45ZM1020.27 1179.92L1019.82 1180.15L1019.82 1180.15L1020.27 1179.92ZM1129.95 1402.45L1130.44 1402.37L1130.44 1402.37L1129.95 1402.45ZM984.107 1511.26L983.932 1511.73L983.932 1511.73L984.107 1511.26ZM978.865 1516.62L978.365 1516.61L978.365 1516.61L978.865 1516.62ZM987.447 1880.95L986.969 1881.1L986.969 1881.1L987.447 1880.95ZM990.327 1941.49L990.756 1941.75L990.756 1941.75L990.327 1941.49ZM987.447 1946.45L987.008 1946.21L986.947 1946.32V1946.45H987.447ZM993.51 2069.19L993.011 2069.22L993.011 2069.22L993.51 2069.19ZM997.947 2369.95V2370.45H998.447V2369.95H997.947ZM821.947 2369.95L821.496 2370.17L821.633 2370.45H821.947V2369.95ZM710.947 2139.95L710.706 2139.51L710.29 2139.74L710.496 2140.17L710.947 2139.95ZM821.947 1683.45L821.458 1683.56L821.458 1683.56L821.947 1683.45ZM804.483 1598.5L803.993 1598.6L804.483 1598.5ZM777.447 1482.95L777.876 1482.7L777.876 1482.7L777.447 1482.95ZM800.2 1323.68L799.708 1323.59L799.708 1323.59L800.2 1323.68ZM809.244 1274L809.736 1274.09L809.753 1273.99L809.734 1273.9L809.244 1274ZM755.947 1062.45L756.402 1062.25L756.402 1062.25L755.947 1062.45ZM683.899 947.557L684.317 947.283L684.296 947.25L684.27 947.222L683.899 947.557ZM655.947 916.453L656.326 916.127L656.326 916.127L655.947 916.453ZM645.739 904.069L645.353 904.387L645.353 904.387L645.739 904.069ZM645.737 904.067L646.124 903.75L646.123 903.749L645.737 904.067ZM645.736 904.066L645.35 904.383L645.351 904.384L645.736 904.066ZM598.447 847.453L598.121 847.832L598.121 847.832L598.447 847.453ZM586.607 827.54L586.163 827.769L586.163 827.769L586.607 827.54ZM583.947 822.453L583.507 822.69L583.507 822.69L583.947 822.453ZM632.498 797.417L580.075 783.47L579.818 784.436L632.241 798.383L632.498 797.417ZM631.954 797.367L631.876 797.815L632.862 797.985L632.939 797.538L631.954 797.367ZM804.715 884.531C783.124 870.776 748.614 849.895 715.246 831.95C698.563 822.978 682.159 814.736 667.795 808.487C653.445 802.243 641.084 797.966 632.505 796.956L632.388 797.949C640.809 798.94 653.053 803.163 667.396 809.403C681.724 815.638 698.102 823.865 714.772 832.831C748.113 850.761 782.602 871.629 804.178 885.375L804.715 884.531ZM924.929 1012.32C922.8 1004.61 916.473 994.642 907.677 983.59C898.868 972.522 887.538 960.316 875.338 948.136C850.935 923.776 823.022 899.49 804.763 884.566L804.13 885.34C822.371 900.249 850.258 924.513 874.631 948.844C886.818 961.01 898.119 973.186 906.895 984.213C915.683 995.256 921.894 1005.09 923.965 1012.59L924.929 1012.32ZM979.396 1069.23C967.839 1045.62 952.752 1032.56 924.742 1012.05L924.151 1012.86C952.141 1033.35 967.054 1046.29 978.498 1069.67L979.396 1069.23ZM1002.95 1144.45C1002.95 1135.62 999.925 1122.68 995.485 1109.05C991.04 1095.4 985.156 1081 979.396 1069.23L978.498 1069.67C984.237 1081.4 990.104 1095.75 994.534 1109.36C998.969 1122.98 1001.95 1135.79 1001.95 1144.45H1002.95ZM1020.72 1179.7C1012.81 1163.99 1006.52 1151.48 1002.89 1144.23L1002 1144.68C1005.63 1151.93 1011.92 1164.44 1019.82 1180.15L1020.72 1179.7ZM1130.44 1402.37C1130.35 1401.86 1129.97 1400.84 1129.38 1399.41C1128.77 1397.96 1127.92 1396.03 1126.84 1393.67C1124.69 1388.96 1121.64 1382.53 1117.91 1374.79C1110.44 1359.3 1100.21 1338.55 1088.88 1315.74C1066.21 1270.12 1039.1 1216.23 1020.72 1179.7L1019.82 1180.15C1038.2 1216.68 1065.31 1270.56 1087.98 1316.19C1099.32 1339 1109.54 1359.74 1117.01 1375.22C1120.74 1382.96 1123.78 1389.38 1125.93 1394.09C1127.01 1396.44 1127.86 1398.36 1128.45 1399.8C1129.06 1401.26 1129.39 1402.17 1129.45 1402.54L1130.44 1402.37ZM1121.38 1431.7C1124.39 1426.44 1127.03 1421.29 1128.73 1416.37C1130.43 1411.45 1131.21 1406.73 1130.44 1402.37L1129.45 1402.54C1130.18 1406.67 1129.46 1411.21 1127.79 1416.04C1126.11 1420.87 1123.51 1425.96 1120.51 1431.2L1121.38 1431.7ZM1077.3 1483.31C1084.56 1476.05 1094.07 1465.79 1102.51 1456.03C1110.95 1446.29 1118.35 1437 1121.38 1431.7L1120.51 1431.2C1117.54 1436.41 1110.2 1445.62 1101.76 1455.38C1093.33 1465.12 1083.83 1475.36 1076.59 1482.6L1077.3 1483.31ZM1012.45 1516.95C1025.07 1516.95 1037.66 1512.16 1048.89 1505.57C1060.12 1498.98 1070.03 1490.58 1077.3 1483.31L1076.59 1482.6C1069.36 1489.83 1059.52 1498.17 1048.38 1504.71C1037.24 1511.25 1024.82 1515.95 1012.45 1515.95V1516.95ZM983.932 1511.73C988.929 1513.6 997.927 1516.95 1012.45 1516.95V1515.95C998.101 1515.95 989.233 1512.64 984.282 1510.8L983.932 1511.73ZM979.447 1511.45C979.447 1510.96 979.54 1510.76 979.614 1510.67C979.668 1510.61 979.787 1510.54 980.133 1510.56C980.483 1510.58 980.963 1510.69 981.611 1510.9C982.252 1511.11 983.018 1511.39 983.932 1511.73L984.282 1510.8C983.375 1510.46 982.586 1510.16 981.918 1509.95C981.257 1509.73 980.675 1509.58 980.19 1509.56C979.701 1509.53 979.213 1509.62 978.868 1510.01C978.543 1510.37 978.447 1510.89 978.447 1511.45H979.447ZM979.365 1516.63C979.416 1513.59 979.447 1511.8 979.447 1511.45H978.447C978.447 1511.79 978.417 1513.56 978.365 1516.61L979.365 1516.63ZM987.925 1880.81C986.193 1875.15 984.741 1865.87 983.533 1853.84C982.327 1841.83 981.367 1827.11 980.609 1810.59C979.095 1777.55 978.393 1737.34 978.15 1697.26C977.664 1617.09 979.013 1537.43 979.365 1516.63L978.365 1516.61C978.013 1537.41 976.664 1617.08 977.15 1697.27C977.393 1737.36 978.095 1777.58 979.61 1810.64C980.368 1827.16 981.329 1841.9 982.539 1853.94C983.747 1865.97 985.206 1875.34 986.969 1881.1L987.925 1880.81ZM990.756 1941.75C994.189 1936.02 996.84 1931.6 996.92 1923.16C996.999 1914.77 994.544 1902.43 987.925 1880.81L986.969 1881.1C993.588 1902.72 995.998 1914.93 995.92 1923.15C995.843 1931.3 993.315 1935.53 989.898 1941.23L990.756 1941.75ZM987.885 1946.69C988.878 1944.88 989.844 1943.27 990.756 1941.75L989.898 1941.23C988.987 1942.76 988.012 1944.38 987.008 1946.21L987.885 1946.69ZM994.009 2069.16C991.143 2017.26 987.947 1959.4 987.947 1946.45H986.947C986.947 1959.44 990.146 2017.35 993.011 2069.22L994.009 2069.16ZM998.447 2156.45C998.447 2149.49 996.336 2111.28 994.009 2069.16L993.011 2069.22C995.339 2111.37 997.447 2149.52 997.447 2156.45H998.447ZM998.447 2335.45V2156.45H997.447V2335.45H998.447ZM998.447 2369.95V2335.45H997.447V2369.95H998.447ZM821.947 2370.45H997.947V2369.45H821.947V2370.45ZM710.496 2140.17L821.496 2370.17L822.397 2369.74L711.397 2139.74L710.496 2140.17ZM847.947 2046.95C847.947 2047.7 847.637 2048.64 846.974 2049.78C846.316 2050.9 845.333 2052.18 844.048 2053.6C841.479 2056.43 837.743 2059.76 833.096 2063.46C823.807 2070.85 810.933 2079.67 796.615 2088.84C767.981 2107.19 733.617 2126.93 710.706 2139.51L711.187 2140.39C734.11 2127.8 768.495 2108.05 797.154 2089.69C811.482 2080.51 824.389 2071.67 833.719 2064.24C838.382 2060.53 842.166 2057.16 844.789 2054.27C846.1 2052.83 847.131 2051.49 847.838 2050.28C848.54 2049.08 848.947 2047.96 848.947 2046.95H847.947ZM821.458 1683.56C830.198 1723.51 836.822 1809.97 841.26 1888.67C845.698 1967.36 847.947 2038.22 847.947 2046.95H848.947C848.947 2038.19 846.696 1967.3 842.258 1888.61C837.822 1809.94 831.196 1723.39 822.435 1683.35L821.458 1683.56ZM803.993 1598.6C809.63 1626.86 815.572 1656.65 821.458 1683.56L822.435 1683.35C816.551 1656.45 810.611 1626.67 804.974 1598.41L803.993 1598.6ZM777.018 1483.21C778.472 1485.63 780.197 1490.55 782.145 1497.5C784.087 1504.43 786.235 1513.32 788.545 1523.66C793.165 1544.32 798.43 1570.71 803.993 1598.6L804.974 1598.41C799.411 1570.52 794.144 1544.12 789.521 1523.44C787.209 1513.1 785.057 1504.18 783.108 1497.23C781.165 1490.3 779.409 1485.25 777.876 1482.7L777.018 1483.21ZM799.708 1323.59C792.898 1360.67 785.965 1398.43 781.357 1427.95C779.053 1442.7 777.328 1455.41 776.491 1464.96C776.072 1469.73 775.874 1473.72 775.938 1476.78C775.97 1478.31 776.068 1479.63 776.24 1480.69C776.409 1481.75 776.658 1482.61 777.018 1483.21L777.876 1482.7C777.614 1482.26 777.39 1481.55 777.227 1480.53C777.065 1479.53 776.97 1478.27 776.938 1476.76C776.875 1473.75 777.07 1469.8 777.487 1465.04C778.321 1455.54 780.042 1442.85 782.345 1428.1C786.951 1398.6 793.881 1360.86 800.691 1323.77L799.708 1323.59ZM808.752 1273.91C805.919 1289.76 802.826 1306.61 799.708 1323.59L800.691 1323.77C803.81 1306.79 806.903 1289.94 809.736 1274.09L808.752 1273.91ZM755.492 1062.66C757.989 1068.16 761.794 1080.4 766.297 1096.66C770.796 1112.9 775.98 1133.09 781.237 1154.45C791.753 1197.16 802.558 1244.51 808.755 1274.1L809.734 1273.9C803.534 1244.29 792.726 1196.93 782.208 1154.21C776.95 1132.85 771.763 1112.64 767.261 1096.39C762.764 1080.16 758.939 1067.83 756.402 1062.25L755.492 1062.66ZM683.481 947.831C698.884 971.305 715.165 996.221 728.459 1017.17C741.763 1038.14 752.051 1055.09 755.492 1062.66L756.402 1062.25C752.926 1054.6 742.592 1037.58 729.303 1016.64C716.004 995.678 699.72 970.756 684.317 947.283L683.481 947.831ZM655.567 916.778C657.312 918.814 671.241 934.276 683.528 947.892L684.27 947.222C671.974 933.596 658.06 918.15 656.326 916.127L655.567 916.778ZM645.353 904.387C650.842 911.067 654.791 915.873 655.567 916.778L656.326 916.127C655.56 915.233 651.622 910.441 646.125 903.752L645.353 904.387ZM645.351 904.384L645.353 904.387L646.126 903.752L646.124 903.75L645.351 904.384ZM645.351 904.384L645.351 904.385L646.123 903.749L646.122 903.748L645.351 904.384ZM598.121 847.832C598.414 848.083 599.122 848.843 600.199 850.064C601.264 851.27 602.662 852.895 604.319 854.846C607.632 858.746 611.972 863.94 616.729 869.67C626.241 881.128 637.412 894.724 645.35 904.383L646.123 903.749C638.185 894.089 627.012 880.492 617.498 869.031C612.741 863.301 608.398 858.103 605.081 854.198C603.423 852.246 602.02 850.615 600.949 849.402C599.891 848.203 599.13 847.38 598.772 847.073L598.121 847.832ZM586.163 827.769C588.069 831.453 590.342 835.848 592.485 839.619C593.557 841.504 594.6 843.24 595.552 844.657C596.495 846.062 597.374 847.192 598.121 847.832L598.772 847.073C598.137 846.528 597.321 845.498 596.382 844.099C595.45 842.712 594.421 841 593.355 839.125C591.223 835.375 588.959 830.998 587.051 827.31L586.163 827.769ZM583.507 822.69C584.239 824.05 585.148 825.808 586.163 827.769L587.051 827.31C586.038 825.351 585.124 823.585 584.387 822.216L583.507 822.69ZM579.447 783.961C579.53 789.302 579.831 797.638 580.461 805.294C580.776 809.121 581.174 812.786 581.671 815.824C582.163 818.839 582.762 821.307 583.507 822.69L584.387 822.216C583.732 820.999 583.151 818.687 582.657 815.663C582.167 812.662 581.772 809.026 581.458 805.212C580.83 797.584 580.53 789.271 580.447 783.945L579.447 783.961Z" fill="black"/>
<path d="M577.947 113.953C563.547 119.153 549.28 131.119 543.947 136.453C541.836 138.453 543.067 141.619 543.947 142.953H562.947C573.447 142.953 623.947 157.953 643.947 167.953C663.947 177.953 705.447 207.453 713.447 215.953C721.447 224.453 722.447 228.953 734.947 228.953C747.447 228.953 746.447 221.953 748.947 215.953C751.447 209.953 744.447 200.953 738.947 196.453C733.447 191.953 738.947 188.953 734.947 176.453C730.947 163.953 718.947 173.953 713.447 167.953C707.947 161.953 694.947 147.953 686.447 142.953C677.947 137.953 650.447 136.453 638.947 128.953C627.447 121.453 627.447 113.953 618.947 105.953C610.447 97.9528 595.947 107.453 577.947 113.953Z" fill="#060606" fill-opacity="0.85" stroke="black"/>
<path d="M285.447 341.453C308.447 302.786 360.147 224.153 382.947 218.953C411.447 212.453 481.947 228.453 515.947 247.453C549.947 266.453 634.447 306.453 642.947 323.953C651.447 341.453 655.447 381.953 642.947 434.953C632.947 477.353 634.447 512.619 636.447 524.953V577.453" stroke="#F5CEB2"/>
<path d="M429.447 628.453C442.447 637.453 448.447 652.953 447.947 665.453C447.547 675.453 444.113 684.286 442.447 687.453" stroke="black"/>
<path d="M284.947 526.453C287.613 525.286 293.847 524.553 297.447 530.953C301.947 538.953 311.447 548.953 318.447 546.453C325.447 543.953 348.447 543.453 355.447 553.953" stroke="#F5CEB2"/>
<path d="M258.446 343.953C246.046 343.153 227.28 355.286 219.446 361.453C214.946 370.786 205.346 393.153 202.946 407.953C199.946 426.453 209.446 477.953 240.946 487.453C272.446 496.953 298.946 486.453 316.946 469.953C334.946 453.453 344.946 412.953 344.946 407.953C344.946 402.953 340.446 388.453 330.446 373.453C320.446 358.453 290.446 349.953 288.446 348.453C286.446 346.953 273.946 344.953 258.446 343.953Z" fill="black"/>
<path d="M455.447 412.953C432.247 407.353 413.113 421.953 406.447 429.953C399.006 436.953 397.947 442.453 392.447 461.453C386.947 480.453 393.447 498.953 397.947 520.453C402.447 541.953 435.947 565.453 450.947 567.453C465.947 569.453 499.447 560.453 510.447 548.953C519.247 539.753 533.78 507.786 539.947 492.953C540.992 489.699 541.795 484.764 541.55 478.953C541.092 468.095 536.974 454.178 523.947 442.453C498.947 419.953 484.447 419.953 455.447 412.953Z" fill="black"/>
<path d="M344.946 401.953C349.28 399.953 360.747 397.153 371.947 401.953C383.147 406.753 399.613 422.619 406.447 429.953M406.447 429.953C413.113 421.953 432.247 407.353 455.447 412.953C484.447 419.953 498.947 419.953 523.947 442.453C536.974 454.178 541.092 468.095 541.55 478.953M406.447 429.953C399.006 436.953 397.947 442.453 392.447 461.453C386.947 480.453 393.447 498.953 397.947 520.453C402.447 541.953 435.947 565.453 450.947 567.453C465.947 569.453 499.447 560.453 510.447 548.953C519.247 539.753 533.78 507.786 539.947 492.953C540.992 489.699 541.795 484.764 541.55 478.953M541.55 478.953L556.447 483.953L664.447 548.953L681.447 560.453M219.446 361.453C227.28 355.286 246.046 343.153 258.446 343.953C273.946 344.953 286.446 346.953 288.446 348.453C290.446 349.953 320.446 358.453 330.446 373.453C340.446 388.453 344.946 402.953 344.946 407.953C344.946 412.953 334.946 453.453 316.946 469.953C298.946 486.453 272.446 496.953 240.946 487.453C209.446 477.953 199.946 426.453 202.946 407.953C205.346 393.153 214.946 370.786 219.446 361.453Z" stroke="#F5CEB2" stroke-width="2"/>
<path d="M217.947 470.453C212.78 484.286 203.347 519.153 206.947 547.953C211.447 583.953 201.947 613.953 206.947 635.453C211.947 656.953 214.447 704.953 224.947 722.953C235.447 740.953 279.447 789.953 330.947 788.953C382.447 787.953 500.447 773.453 531.447 755.453C556.247 741.053 580.78 714.786 589.947 703.453" stroke="#F5CEB2"/>
<path d="M638.447 586.453C642.614 578.453 655.647 562.653 674.447 563.453C697.947 564.453 712.447 572.453 712.447 594.953C712.447 617.453 690.947 639.953 674.447 657.953C657.947 675.953 633.947 692.453 622.447 697.453C610.947 702.453 596.447 704.453 591.447 700.953C586.447 697.453 582.947 685.453 583.447 681.453" stroke="#F5CEB2"/>
<path d="M297.947 647.453C251.147 637.853 246.78 613.119 250.447 601.953C251.614 597.786 253.847 588.353 253.447 583.953C252.947 578.453 257.947 574.953 261.947 571.453C265.947 567.953 280.947 569.453 287.447 571.453C293.947 573.453 304.447 585.953 311.947 589.453C319.447 587.953 333.447 594.453 337.447 595.453C341.106 596.368 393.724 641.638 402.661 647.047C403.508 647.042 403.947 647.164 403.947 647.453C403.947 647.708 403.494 647.55 402.661 647.047C394.708 647.088 350.821 658.299 297.947 647.453Z" fill="#CF8B7B"/>
<path d="M250.447 601.953C246.78 613.119 251.147 637.853 297.947 647.453C356.447 659.453 403.947 644.453 403.947 647.453C403.947 650.453 341.447 596.453 337.447 595.453C333.447 594.453 319.447 587.953 311.947 589.453C304.447 585.953 293.947 573.453 287.447 571.453C280.947 569.453 265.947 567.953 261.947 571.453C257.947 574.953 252.947 578.453 253.447 583.953C253.847 588.353 251.614 597.786 250.447 601.953Z" stroke="#CF8B7B" stroke-width="3"/>
<path d="M298.947 593.953C283.747 587.153 267.947 587.786 261.947 588.953V595.953C261.947 598.453 262.647 604.053 265.447 606.453C268.947 609.453 288.447 616.953 296.447 620.953C304.447 624.953 340.947 641.953 350.947 644.953C358.947 647.353 372.947 645.953 378.947 644.953C378.114 643.953 374.847 640.353 368.447 633.953C360.447 625.953 317.947 602.453 298.947 593.953Z" fill="#F4EDED" stroke="#F4EDED"/>
<path d="M266.947 769.953L283.947 893.453C289.113 920.953 298.647 983.153 295.447 1011.95C292.247 1040.75 290.447 1052.29 289.947 1054.45" stroke="#F5CEB2"/>
<path d="M289.947 1054.95C281.113 1069.79 260.847 1103.85 250.447 1121.45C240.047 1139.05 221.113 1171.12 212.947 1184.95C199.113 1210.12 170.247 1263.25 165.447 1274.45C159.447 1288.45 136.947 1335.95 141.947 1346.95" stroke="#F5CEB2"/>
<path d="M719.447 549.953C735.947 504.119 767.947 404.253 763.947 371.453" stroke="#DADDB8"/>
<path d="M689.447 540.953C713.447 488.286 760.447 372.953 756.447 332.953" stroke="#DADDB8"/>
<path d="M695.947 464.953C712.78 415.619 745.147 310.853 739.947 286.453" stroke="#DADDB8"/>
<path d="M689.447 359.953C704.947 329.786 734.647 266.953 729.447 256.953" stroke="#DADDB8"/>
<path d="M701.447 233.953C694.113 254.119 676.347 297.253 663.947 308.453" stroke="#DADDB8"/>
<path d="M675.447 205.953C665.28 228.619 641.847 274.453 629.447 276.453" stroke="#DADDB8"/>
<path d="M591.947 244.453C614.28 226.786 658.447 190.453 656.447 186.453" stroke="#DADDB8"/>
<path d="M557.447 222.453C581.28 206.62 632.847 176.253 648.447 181.453" stroke="#DADDB8"/>
<path d="M503.447 206.953C535.613 192.12 605.347 164.453 626.947 172.453" stroke="#DADDB8"/>
<path d="M441.947 201.953C450.947 190.786 479.447 167.453 521.447 163.453C573.947 158.453 592.947 163.453 603.447 163.453" stroke="#DADDB8"/>
<path d="M784.947 174.953C804.28 192.453 840.847 255.453 832.447 367.453C821.947 507.453 815.947 582.453 816.947 612.453C817.947 642.453 791.447 811.453 784.947 847.453C778.447 883.453 795.447 920.453 796.447 1046.45C797.247 1147.25 802.78 1167.45 805.447 1164.95" stroke="#DADDB8"/>
<path d="M742.447 188.953C754.78 189.786 780.747 195.853 785.947 213.453C791.147 231.053 800.113 257.453 803.947 268.453" stroke="#DADDB8"/>
<path d="M634.447 116.953C660.613 104.953 716.547 84.5528 730.947 98.9528" stroke="#DADDB8"/>
<path d="M710.447 151.953C733.447 140.286 783.047 121.853 797.447 141.453C811.847 161.053 826.78 215.619 832.447 240.453" stroke="#DADDB8"/>
<path d="M735.947 175.953C753.78 173.453 791.547 176.953 799.947 210.953C810.447 253.453 824.947 299.453 816.947 391.953C808.947 484.453 793.447 625.453 799.947 654.953C806.447 684.453 769.447 784.953 762.947 832.453C756.447 879.953 746.447 972.453 762.947 1015.95C779.447 1059.45 799.947 1175.95 799.947 1206.95C799.947 1231.75 799.947 1262.62 799.947 1274.95" stroke="#DADDB8"/>
<path d="M716.447 159.453C747.28 151.453 810.747 147.753 817.947 196.953C826.947 258.453 844.947 278.453 839.947 351.953C835.947 410.753 833.28 509.119 832.447 550.953C831.78 596.453 827.947 697.453 817.947 737.453C805.447 787.453 781.447 887.453 784.947 911.953C788.447 936.453 817.947 1037.95 817.947 1072.45C817.947 1106.95 802.447 1207.95 802.447 1233.95" stroke="#DADDB8"/>
<path d="M653.947 127.453C666.613 108.453 705.847 77.4528 761.447 105.453C830.947 140.453 821.947 146.453 830.947 168.453C838.147 186.053 842.613 201.453 843.947 206.953" stroke="#F0F5B2"/>
<path d="M679.447 134.953C724.947 136.786 821.547 154.053 843.947 208.453C871.947 276.453 845.947 364.953 856.447 439.453C866.947 513.953 855.447 655.453 843.947 707.953C832.447 760.453 797.947 826.953 798.947 853.953C799.947 880.953 824.947 938.953 843.947 955.453" stroke="#F0F5B2"/>
<path d="M535.447 145.453C503.613 150.619 432.447 165.453 402.447 183.453C364.947 205.953 335.947 240.453 326.447 255.453C318.847 267.453 314.28 285.786 312.947 293.453" stroke="#FFD15A"/>
<path d="M711.447 610.953C731.447 576.286 771.747 494.553 772.947 444.953C774.447 382.953 760.947 307.953 747.447 291.953" stroke="#FBDB68"/>
<path d="M675.447 132.453C696.613 121.453 745.047 104.553 769.447 124.953C793.847 145.353 817.28 166.786 825.947 174.953" stroke="#DADDB8"/>
<path d="M752.447 203.453C760.447 205.953 777.447 214.653 781.447 229.453C786.447 247.953 794.947 283.953 793.947 297.453C792.947 310.953 793.947 395.953 793.947 403.453C793.947 410.953 775.947 594.453 779.447 603.953C782.947 613.453 773.947 714.453 770.947 742.953C767.947 771.453 701.947 907.453 707.447 932.953C712.947 958.453 712.947 995.453 731.947 1035.95C750.947 1076.45 787.447 1186.45 792.947 1217.45" stroke="#DADDB8"/>
<path d="M739.447 164.953C763.28 161.286 811.747 163.153 814.947 199.953C818.947 245.953 814.947 294.953 814.947 327.953C814.947 360.953 814.947 442.953 814.947 459.953" stroke="#DADDB8"/>
<path d="M830.947 197.453C850.113 256.619 886.347 386.753 877.947 433.953C867.447 492.953 844.947 569.953 844.947 603.953C844.947 637.953 854.947 782.953 844.947 836.453C834.947 889.953 812.947 959.453 817.947 997.453" stroke="#DADDB8"/>
<path d="M788.947 625.953C785.447 698.619 774.247 858.653 757.447 917.453C736.447 990.953 746.947 1044.45 757.447 1078.45C765.847 1105.65 781.947 1157.79 788.947 1180.45" stroke="#DADDB8"/>
<path d="M801.947 475.953C776.78 546.786 726.947 701.053 728.947 751.453C731.447 814.453 740.947 883.453 728.947 951.453C719.347 1005.85 761.613 1095.45 783.947 1133.45" stroke="#DADDB8"/>
<path d="M727.447 644.453C710.28 682.119 676.547 771.753 678.947 828.953C681.347 886.153 684.613 924.119 685.947 935.953L701.447 1005.45" stroke="#DADDB8"/>
<path d="M756.447 537.453C731.614 583.786 680.847 687.153 676.447 729.953C670.947 783.453 663.947 869.453 676.447 927.453C686.447 973.853 699.947 1002.79 705.447 1011.45" stroke="#DADDB8"/>
<path d="M675.447 665.453C653.113 710.619 612.247 814.153 627.447 866.953C642.647 919.753 678.447 977.953 694.447 1000.45" stroke="#FFE896" stroke-width="2"/>
<path d="M767.447 618.453C760.947 704.119 745.747 890.553 736.947 950.953C725.947 1026.45 790.947 1183.45 798.947 1207.95" stroke="#FFE896" stroke-width="2"/>
<path d="M743.947 171.953C762.28 167.453 801.147 167.253 809.947 202.453C820.947 246.453 834.947 309.953 831.947 372.953C828.947 435.953 809.947 573.453 809.947 621.453C809.947 669.453 797.447 810.953 780.947 897.453C764.447 983.953 779.947 1139.45 789.447 1169.45" stroke="#FFE896" stroke-width="2"/>
<path d="M703.947 135.953C727.113 122.119 779.147 105.553 801.947 149.953C830.447 205.453 848.947 278.953 850.947 313.453C852.947 347.953 840.447 493.953 841.447 550.453C842.247 595.653 824.113 693.953 814.947 737.453" stroke="#FFE896" stroke-width="2"/>
<path d="M771.447 518.453C746.28 588.953 696.747 750.253 699.947 831.453C703.147 912.653 720.28 996.953 728.447 1028.95" stroke="#FFE896" stroke-width="2"/>
<path d="M416.947 195.953C440.947 181.119 500.747 151.453 547.947 151.453" stroke="#FFE896" stroke-width="2"/>
<path d="M527.947 228.453C547.613 209.953 596.047 173.553 632.447 175.953" stroke="#FFE896" stroke-width="2"/>
<path d="M668.947 351.453C687.447 323.786 724.047 264.153 722.447 246.953" stroke="#FFE896" stroke-width="2"/>
<path d="M680.947 446.953C699.28 402.286 736.147 307.053 736.947 283.453" stroke="#FFE896" stroke-width="2"/>
<path d="M767.447 433.453C760.78 465.453 742.647 538.053 723.447 572.453" stroke="#FFE896" stroke-width="2"/>
<path d="M476.447 207.953C492.113 193.786 537.647 165.853 594.447 167.453" stroke="#DFA46D"/>
<path d="M607.947 271.453C623.947 254.619 658.047 216.653 666.447 199.453" stroke="#DFA46D"/>
<path d="M564.447 246.453C585.113 227.619 630.747 189.353 647.947 186.953" stroke="#DFA46D"/>
<path d="M646.447 302.953C661.78 280.286 692.047 231.653 690.447 218.453" stroke="#DFA46D"/>
<path d="M711.447 244.453C704.78 264.953 686.247 313.253 665.447 342.453" stroke="#DFA46D"/>
<path d="M662.447 443.953C688.113 392.619 739.047 286.953 737.447 274.953" stroke="#DFA46D"/>
<path d="M665.447 530.453C693.947 478.453 750.547 365.953 748.947 331.953" stroke="#DFA46D"/>
<path d="M651.947 508.453C670.947 475.953 710.247 405.253 715.447 382.453" stroke="#DFA46D"/>
<path d="M700.947 556.453C723.447 501.619 767.447 385.853 763.447 361.453" stroke="#DFA46D"/>
<path d="M663.447 129.453C691.613 113.286 757.747 90.6528 796.947 129.453" stroke="#DFA46D"/>
<path d="M726.447 153.453C752.947 144.619 809.747 136.953 824.947 176.953C843.947 226.953 860.947 333.453 863.947 392.953C866.947 452.453 843.947 510.453 844.947 548.453C845.947 586.453 852.947 733.953 844.947 782.953C836.947 831.953 806.947 920.453 806.947 960.453" stroke="#DFA46D"/>
<path d="M751.447 197.953C769.613 196.786 806.747 217.153 809.947 307.953C813.947 421.453 796.947 520.453 796.947 538.453C796.947 556.453 807.947 660.953 796.947 727.953C785.947 794.953 759.947 899.453 761.947 953.453C763.947 1007.45 796.947 1127.95 803.947 1192.95" stroke="#DFA46D"/>
<path d="M646.447 693.953C626.113 732.453 590.847 818.453 612.447 854.453C639.447 899.453 666.447 930.453 672.447 944.453" stroke="#DFA46D"/>
<path d="M734.447 595.453C705.78 657.453 653.447 799.453 673.447 871.453C698.447 961.453 724.447 1017.45 729.447 1032.45" stroke="#DFA46D"/>
<path d="M697.447 641.953C671.113 683.453 627.047 792.653 661.447 897.453C695.847 1002.25 747.447 1100.12 768.947 1135.95" stroke="#DFA46D"/>
<path d="M757.947 215.953C772.613 241.286 801.247 315.853 798.447 411.453" stroke="#DFA46D"/>
<path d="M600.947 702.953C595.305 711.786 583.457 734.353 581.201 753.953C578.38 778.453 581.201 801.453 581.201 810.953C581.201 818.553 589.851 835.453 594.177 842.953" stroke="#F5CEB2"/>
<path d="M276.447 843.453C270.78 847.453 258.447 858.153 254.447 868.953C249.447 882.453 239.447 904.453 237.447 919.953C235.447 935.453 231.947 964.453 237.447 970.953C242.947 977.453 257.447 979.953 263.947 972.453C270.447 964.953 282.447 907.953 285.447 906.953" stroke="#F5CEB2"/>
<path d="M255.947 863.453C252.947 858.619 245.547 848.853 239.947 848.453C232.947 847.953 228.947 849.953 226.447 851.453C223.947 852.953 217.947 858.453 216.447 869.953C214.947 881.453 207.447 902.453 208.947 912.453C210.447 922.453 212.447 939.453 217.947 944.453C222.347 948.453 230.447 947.786 233.947 946.953" stroke="#F5CEB2"/>
<path d="M207.447 912.453C186.28 950.286 143.047 1033.05 139.447 1061.45C140.947 1098.45 143.947 1130.45 139.447 1161.45C134.947 1192.45 117.447 1282.45 125.447 1340.45" stroke="#F5CEB2"/>
<path d="M287.947 956.953C262.28 974.953 210.847 1014.65 210.447 1029.45" stroke="#F5CEB2"/>
<path d="M236.447 965.453C237.447 955.12 241.547 934.953 249.947 936.953C260.447 939.453 263.447 946.453 263.947 955.953C264.347 963.553 264.113 969.12 263.947 970.953" stroke="#F5CEB2"/>
<path d="M236.947 919.953C234.78 914.619 229.247 905.553 224.447 911.953C219.647 918.353 218.78 931.953 218.947 937.953V944.453" stroke="#F5CEB2"/>
<path d="M593.947 842.453C623.447 875.119 684.147 947.053 690.947 973.453C699.447 1006.45 753.447 1062.95 783.947 1186.45C808.347 1285.25 812.113 1321.62 810.947 1327.45" stroke="#F5CEB2"/>
<path d="M276.447 1152.95C249.647 1210.15 177.613 1306.79 144.947 1347.95C139.747 1337.15 154.447 1295.79 162.447 1276.45C150.447 1294.95 126.447 1333.25 126.447 1338.45C126.447 1344.95 101.447 1415.45 82.9467 1473.95C64.4467 1532.45 79.9467 1547.95 92.9467 1583.95C105.947 1619.95 121.947 1637.95 132.947 1657.45C130.113 1677.79 122.647 1736.05 115.447 1806.45C176.947 1904.45 557.447 1896.45 555.447 1879.95C553.447 1863.45 482.447 1718.45 477.947 1696.95C474.347 1679.75 429.78 1584.79 407.947 1539.45C373.447 1515.12 297.247 1456.25 268.447 1415.45C232.447 1364.45 255.947 1274.45 255.447 1260.45C255.047 1249.25 269.28 1199.12 276.447 1175.45C285.78 1155.62 305.547 1112.25 309.947 1097.45C315.447 1078.95 331.947 1048.45 357.947 1011.95C383.947 975.453 410.947 967.453 463.947 945.453C516.947 923.453 557.447 939.953 578.947 945.453C600.447 950.953 631.447 974.953 667.947 1021.45C704.447 1067.95 715.947 1100.45 733.447 1132.45C750.947 1164.45 764.947 1236.45 769.447 1260.45C773.947 1284.45 775.947 1342.95 775.947 1361.45C775.947 1376.25 768.613 1425.95 764.947 1448.95L775.947 1481.95L787.447 1400.45C788.28 1364.62 787.147 1278.65 775.947 1221.45C761.947 1149.95 737.447 1106.95 683.447 1021.45C629.447 935.953 573.947 930.453 523.947 923.953C473.947 917.453 402.447 958.453 367.447 988.953C332.447 1019.45 309.947 1081.45 276.447 1152.95Z" fill="#060606" fill-opacity="0.85" stroke="#F5CEB2"/>
<circle cx="603.447" cy="677.453" r="5.5" fill="#7A7979"/>
<circle cx="621.947" cy="683.953" r="5" fill="#7A7979"/>
<path d="M642.479 678.453C642.479 680.938 640.464 682.953 637.979 682.953C635.494 682.953 633.479 680.938 633.479 678.453C633.479 675.968 635.494 673.953 637.979 673.953C640.464 673.953 642.479 675.968 642.479 678.453Z" fill="#7A7979"/>
<path d="M310.947 1104.45C307.947 1151.95 305.347 1256.85 318.947 1296.45C332.547 1336.05 384.28 1474.62 408.447 1538.95C459.447 1647.45 561.447 1869.85 561.447 1891.45C561.447 1913.05 561.447 1924.45 561.447 1927.45C453.614 2004.79 217.247 2162.55 134.447 2174.95C90.4469 2110.45 73.4469 2091.95 56.4469 2088.45C39.4469 2084.95 21.9469 2088.45 23.9469 2105.45C25.9469 2122.45 40.947 2135.95 39.447 2144.45C37.947 2152.95 -35.053 2263.45 39.447 2327.95C99.047 2379.55 178.614 2365.12 210.947 2351.45C322.613 2314.12 562.947 2229.95 630.947 2191.95C715.947 2144.45 837.947 2062.95 846.447 2045.95C844.947 2016.95 848.447 1792.45 822.947 1688.95C797.447 1585.45 732.947 1275.95 708.947 1258.95" stroke="#F5CEB2"/>
<path d="M123.447 1817.45C118.947 1890.95 113.847 2044.55 129.447 2070.95" stroke="#F5CEB2"/>
</g>
</svg>
